# xmcd CD database file
#
# Track frame offsets:
#	150
#	15957
#	38106
#	58226
#	70661
#	86608
#	107395
#	122486
#	142093
#	163902
#	178258
#	197626
#	216503
#
# Disc length: 3175 seconds
#
# Revision: 1
# Processed by: cddbd v1.5.2PL0 Copyright (c) Steve Scherf et al.
# Submitted via: CDex 1.51
#
DISCID=b80c650d
DTITLE=Paula Nelson Band - Lucky 13
DYEAR=2008
DGENRE=Country
TTITLE0=Fire Below
TTITLE1=Standing Tall
TTITLE2=Day to Day Love
TTITLE3=Every Now and Then
TTITLE4=Baby You're Mean
TTITLE5=Angel From Montgomery
TTITLE6=Surrender
TTITLE7=Bein' Alone
TTITLE8=Overboard
TTITLE9=Find Your Way
TTITLE10=Easy Money
TTITLE11=Only You
TTITLE12=Jackson
EXTD=YEAR: 2008
EXTT0=
EXTT1=
EXTT2=
EXTT3=
EXTT4=
EXTT5=
EXTT6=
EXTT7=
EXTT8=
EXTT9=
EXTT10=
EXTT11=
EXTT12=
PLAYORDER=
